<?xml version="1.0" standalone="no"?>
<!DOCTYPE svg PUBLIC "-//W3C//DTD SVG 20010904//EN"
 "http://www.w3.org/TR/2001/REC-SVG-20010904/DTD/svg10.dtd">
<svg version="1.0" xmlns="http://www.w3.org/2000/svg"
 width="16.000000pt" height="16.000000pt" viewBox="0 0 16.000000 16.000000"
 preserveAspectRatio="xMidYMid meet">
<metadata>
Created by potrace 1.11, written by Peter Selinger 2001-2013
</metadata>
<g transform="translate(0.000000,16.000000) scale(0.006202,-0.006202)"
fill="#000000" stroke="none">
<path d="M460 2450 l0 -70 825 0 825 0 0 70 0 70 -825 0 -825 0 0 -70z"/>
<path d="M456 2018 c-14 -622 23 -987 127 -1242 113 -276 350 -532 658 -709
l45 -27 75 47 c384 239 613 544 695 928 40 185 46 282 51 798 l5 507 -825 0
-824 0 -7 -302z m311 46 c63 -48 136 -73 265 -93 136 -20 195 -41 250 -89 l35
-32 -10 39 c-12 46 4 118 29 128 46 17 68 -78 35 -152 -19 -43 -23 -46 -38
-34 -14 12 -15 12 -9 0 5 -7 10 -43 11 -80 6 -181 18 -348 26 -361 7 -13 8
-13 9 0 0 8 4 21 9 29 15 23 41 -5 41 -43 0 -52 -33 -74 -50 -33 -7 18 -9 13
-9 -25 -1 -27 1 -48 3 -48 1 0 35 31 74 69 39 38 63 67 53 64 -18 -5 -18 7 5
122 5 23 73 99 81 91 3 -3 8 -28 11 -55 3 -39 0 -58 -16 -86 -22 -35 -18 -45
8 -23 8 7 -19 -23 -62 -67 -96 -100 -118 -141 -118 -218 0 -58 26 -184 41
-201 14 -15 158 75 209 131 51 56 80 121 81 187 l1 41 12 -35 c13 -34 13 -34
19 -9 11 42 45 78 88 90 21 7 42 10 45 6 3 -3 1 -21 -5 -39 -13 -38 -70 -98
-116 -121 -23 -11 -33 -26 -43 -61 -18 -67 -56 -119 -129 -177 -107 -84 -142
-160 -146 -319 -2 -64 -4 -71 -25 -77 -12 -3 -41 -2 -65 1 l-42 6 1 533 2 532
-15 -195 c-8 -107 -15 -196 -17 -197 -1 -1 -33 28 -72 65 -102 99 -156 134
-73 46 101 -106 130 -180 109 -281 -6 -29 -13 -53 -16 -53 -3 0 -27 11 -54 25
-41 21 -144 44 -198 45 -15 0 -49 73 -62 133 -8 37 -9 33 -6 -28 2 -38 7 -80
11 -92 6 -19 4 -23 -15 -23 -12 0 -63 -14 -112 -30 -50 -17 -92 -29 -94 -28
-5 5 9 1048 14 1048 3 0 20 -12 39 -26z m778 -186 c-16 -101 -82 -178 -157
-181 -39 -2 -44 13 -28 73 15 54 71 115 123 134 67 23 70 22 62 -26z m-854 -5
c11 -13 13 -84 11 -387 -1 -204 -5 -394 -8 -423 l-6 -51 108 29 c129 34 164
36 189 9 10 -11 16 -22 14 -25 -3 -2 -52 -11 -110 -20 -57 -8 -131 -21 -164
-29 -33 -9 -66 -15 -74 -16 -12 0 -13 53 -7 343 7 401 16 587 26 587 4 0 14
-7 21 -17z m929 -86 c0 -22 -35 -48 -66 -50 -23 -2 -29 2 -29 18 0 21 37 45
73 45 12 0 22 -6 22 -13z m180 -96 c0 -41 -27 -111 -53 -139 -27 -29 -89 -62
-117 -62 -46 0 -8 140 51 182 22 17 92 46 112 48 4 0 7 -13 7 -29z m-180 1 c0
-11 -39 -47 -69 -62 -34 -17 -101 -16 -139 4 -40 21 -37 37 9 53 39 13 199 17
199 5z m-202 -97 c17 -19 34 -50 38 -70 7 -38 -2 -105 -15 -105 -18 0 -53 51
-67 96 -15 48 -11 114 5 114 5 0 23 -16 39 -35z m462 -35 c13 -9 12 -12 -4
-25 -23 -18 -92 -20 -102 -3 -17 28 71 51 106 28z m-67 -63 l58 -13 -28 -26
c-52 -48 -124 -57 -180 -22 -32 20 -29 28 15 47 71 30 61 29 135 14z m-107
-112 c29 -12 33 -17 25 -32 -39 -74 -145 -110 -243 -82 -43 11 -43 11 -22 44
45 68 163 103 240 70z m-6 -146 c0 -43 -32 -91 -74 -110 -58 -26 -79 -25 -71
4 23 75 45 100 104 118 39 11 41 11 41 -12z m-174 -25 c10 -37 -3 -95 -26
-124 -12 -14 -26 -37 -33 -52 -16 -38 -22 -35 -37 15 -15 56 -1 113 39 156 35
38 49 39 57 5z m347 -14 c13 -11 -33 -40 -63 -40 -53 0 -64 31 -16 50 22 9 65
3 79 -10z m-711 -150 c71 -27 85 -37 73 -49 -15 -15 -132 14 -180 44 l-40 24
47 1 c26 0 71 -9 100 -20z"/>
</g>
</svg>
